<svg xmlns="http://www.w3.org/2000/svg" version="1.1" xmlns:xlink="http://www.w3.org/1999/xlink" xmlns:svgjs="http://svgjs.dev/svgjs" viewBox="0 0 5.634970331734832 4.224528876596251"><g transform="matrix(0.8371779844883454,0,0,0.8371779844883454,2.819374567204019,3.693653442413228)"><g transform="matrix(1,0,0,1,0,0)"><path d=" M -2.1159406399232816 -1.375261454014561 Q -2.0853704183532877 -1.3900925548894614 -2.0611288547217836 -1.414782564867178 Q -2.0368872910902796 -1.4394725748448944 -2.002294201631497 -1.4825227567457488 Q -1.9642291927797022 -1.5291709625109524 -1.9377555123789634 -1.5555981123012637 Q -1.9112818319782248 -1.582025262091575 -1.8755025512026242 -1.59822227006159 Q -1.8397232704270234 -1.6144192780316051 -1.7950691338814437 -1.6088507872694051 Q -1.7444611124631197 -1.602539831072245 -1.7080477689825666 -1.5712937366512254 Q -1.6716344255020135 -1.540047642230206 -1.655308952828484 -1.4891361607944256 Q -1.638983480154954 -1.4382246793586448 -1.6466556229828742 -1.3767012023402905 Q -1.6518528810275943 -1.3350240082310825 -1.6682749552702452 -1.2922272153889913 Q -1.684697029512896 -1.2494304225469002 -1.7034201733408934 -1.2285871050279416 Q -1.7104877563660774 -1.2203987431537857 -1.7235115844961826 -1.2210151041174084 L -1.875085800040657 -1.2338703435969849 L -1.8760781141861143 -1.233994087836145 Q -1.8800473707679435 -1.2344890647927849 -1.8799248066448722 -1.2395125076396516 Q -1.8798022425218008 -1.2445359504865183 -1.8757092417008114 -1.2450332876753356 Q -1.789263607735573 -1.2675088826251473 -1.7314118278620343 -1.3031237891316036 Q -1.6735600479884956 -1.33873869563806 -1.6653929282039355 -1.4042314292382438 Q -1.6600719259200554 -1.446900937492909 -1.6798027254026624 -1.4785860373314317 Q -1.6995335248852697 -1.5102711371699542 -1.7541108028854229 -1.5170770703237544 Q -1.7977726252855453 -1.5225218168467947 -1.8329320047492572 -1.5072552509026567 Q -1.8680913842129692 -1.4919886849585189 -1.8934490062290905 -1.466430105074505 Q -1.9188066282452119 -1.4408715251904913 -1.9566241486186868 -1.3962079477162022 Q -1.993325610607544 -1.3524129401482106 -2.018001459192197 -1.3282809593628027 Q -2.0426773077768496 -1.3041489785773948 -2.0762863439027957 -1.2891929533472455 Q -2.1098953800287417 -1.2742369281170964 -2.1515725741379494 -1.2794341861618166 Q -2.2031729097017307 -1.2858688865981367 -2.2353076360025543 -1.3191007894261595 Q -2.2674423623033784 -1.352332692254182 -2.279053752727941 -1.400640824203248 Q -2.2906651431525042 -1.448948956152314 -2.284354186955344 -1.4995569775706379 Q -2.280146882823904 -1.5332956585161872 -2.2694895367469914 -1.5662300019071962 Q -2.2588321906700783 -1.5991643452982056 -2.246062931714825 -1.6207501282521242 Q -2.241972291126013 -1.62930972284376 -2.237135644753975 -1.631729816203912 Q -2.2322989983819372 -1.634149909564064 -2.2253527993637356 -1.6332836998899438 L -2.090026842864059 -1.6194314258005555 Q -2.087049900427687 -1.6190601930830755 -2.086242022524881 -1.6134168489243201 Q -2.085434144622075 -1.6077735047655648 -2.089527145443064 -1.6072761675767475 Q -2.1525331930991616 -1.5949782832563613 -2.2057981753111595 -1.5678610992219606 Q -2.2590631575231575 -1.5407439151875604 -2.2673540215468777 -1.4742588674419193 Q -2.2729225123090777 -1.4296047308963393 -2.2504015668649275 -1.40009105582356 Q -2.227880621420777 -1.3705773807507806 -2.1832264848751968 -1.3650088899885804 Q -2.1465108614932755 -1.3604303531396602 -2.1159406399232816 -1.375261454014561 M -1.5850185079936647 -1.76737059926777 Q -1.6298223880814606 -1.7370248857471025 -1.6843035940350009 -1.7340168634985267 Q -1.738784799988541 -1.731008841249951 -1.7908125858858568 -1.7542920861832305 Q -1.8501425171722692 -1.7808431549667951 -1.8783979346809756 -1.8290938687584966 Q -1.906653352189682 -1.877344582550198 -1.9065624980415938 -1.9326301298977986 Q -1.9064716438935057 -1.987915677245399 -1.8848223108853683 -2.0362923904481662 Q -1.8599051540269462 -2.09197124904003 -1.8148491288429747 -2.121656339483236 Q -1.769793103659003 -2.1513414299264424 -1.7166331438603857 -2.1538451619826664 Q -1.663473184061768 -2.156348894038891 -1.6141837026853638 -2.134291083049468 Q -1.559417612267137 -2.109782404172331 -1.528567608554118 -2.0636572779296127 Q -1.4977176048410992 -2.0175321516868943 -1.4948659154776331 -1.9614775544822556 Q -1.4920142261141671 -1.905422957277617 -1.5157059490287326 -1.8524824032066642 Q -1.540214627905869 -1.7977163127884375 -1.5850185079936647 -1.76737059926777 M -1.5297326680979755 -1.965577501032134 Q -1.5557313943096112 -2.002958194382745 -1.6241890073323946 -2.0335940429791655 Q -1.6853444749660813 -2.0609620677253013 -1.7385397263017208 -2.064499755577295 Q -1.7917349776373603 -2.068037443429289 -1.828334006562422 -2.0499056734731456 Q -1.8649330354874838 -2.0317739035170024 -1.8800467207950513 -1.9980014810924291 Q -1.8984282299529036 -1.956926913278759 -1.8740508010978993 -1.920819559977538 Q -1.849673372242895 -1.8847122066763167 -1.783954063741023 -1.8553017920237527 Q -1.7246241324546103 -1.8287507232401883 -1.670468206839801 -1.8236875502426289 Q -1.6163122812249913 -1.8186243772450694 -1.5769749477790183 -1.835530713257356 Q -1.5376376143330452 -1.8524370492696425 -1.5217069730629065 -1.8880350080414898 Q -1.5037339418863398 -1.928196807681523 -1.5297326680979755 -1.965577501032134 M -1.730675082478814 -2.83679542724194 Q -1.6994683513971136 -2.8518748813167543 -1.6788811692033774 -2.835995085054777 Q -1.6630448752081957 -2.8237798571609485 -1.6621842849893007 -2.8060666026752488 Q -1.6613236947704055 -2.78835334818955 -1.6723173998748515 -2.774100683593886 Q -1.6845326277686803 -2.758264389598705 -1.698071954710772 -2.7554471878034574 Q -1.711611281652864 -2.75262998600821 -1.7321526135005096 -2.7571081202095153 Q -1.7561098589317474 -2.7604323331009266 -1.7720584307128608 -2.756947643998198 Q -1.7880070024939743 -2.7534629548954697 -1.8020545145718774 -2.735251216801011 Q -1.8325925843064492 -2.6956604818130563 -1.7988367092681605 -2.6329983648650996 Q -1.7650808342298716 -2.5703362479171425 -1.6573940350626364 -2.487272698239107 L -1.608301523677573 -2.4494054917682377 Q -1.5773337458533774 -2.4911906175504015 -1.5445795341911979 -2.5467528494925147 Q -1.5427472500071235 -2.549128293591792 -1.5359830243194272 -2.54643659322847 Q -1.5292187986317307 -2.543744892865148 -1.5213006516341399 -2.5376372789182335 Q -1.5141743193363082 -2.5321404263660106 -1.5088802712225506 -2.5242681297145104 Q -1.5035862231087933 -2.5163958330630103 -1.5068210833873181 -2.5138393356586652 Q -1.555162934260123 -2.4740892984990412 -1.5877143414838368 -2.4335256955062605 L -1.373924372548884 -2.268620118939572 Q -1.3493781168563526 -2.2496865157041372 -1.334322761994231 -2.2462826517268915 Q -1.3192674071321093 -2.242878787749645 -1.3037038671341767 -2.254869460071611 Q -1.288140327136244 -2.266860132393576 -1.2630991099538948 -2.2993245350836986 Q -1.2606560643751292 -2.302491793882735 -1.2559051761765747 -2.2988272255145863 Q -1.2511542879780202 -2.2951626571464376 -1.2535973335567858 -2.2919953983474013 L -1.2953101617008713 -2.239554574858234 Q -1.3095387270838421 -2.2227454128582256 -1.3370229898449568 -2.1871137513690666 L -1.3722660974319927 -2.1397859226885894 Q -1.3806357036526051 -2.127297940797512 -1.3977370227039654 -2.1051271292042575 Q -1.4001800682827312 -2.101959870405221 -1.4049309564812857 -2.10562443877337 Q -1.4096818446798403 -2.1092890071415185 -1.4072387991010744 -2.112456265940555 Q -1.3907482414444057 -2.13383526283405 -1.3871633241620918 -2.147488041601721 Q -1.383578406879778 -2.161140820369392 -1.3916100057029481 -2.1736505533938675 Q -1.3996416045261182 -2.186160286418343 -1.4233960455188905 -2.204483128259086 L -1.6015543529646845 -2.34190444206466 Q -1.6276842380567345 -2.362059568089477 -1.6427504684855547 -2.3572628295448323 Q -1.6578166989143752 -2.352466091000187 -1.6828579160967243 -2.3200016883100645 Q -1.6846902002807986 -2.3176262442107873 -1.6918165325786303 -2.3231230967630103 Q -1.698151050176703 -2.3280091879205416 -1.6963187659926287 -2.330384632019819 Q -1.6737205943890454 -2.359681775910905 -1.6729975552084224 -2.3761735076072212 Q -1.6722745160277992 -2.392665239303538 -1.691459122127085 -2.4087260888705826 Q -1.8174711112143584 -2.5122392697040827 -1.8406750388441715 -2.6008610940057206 Q -1.8638789664739845 -2.689482918307359 -1.7954736902685435 -2.778166164680376 Q -1.7618818135605143 -2.8217159731671257 -1.730675082478814 -2.83679542724194 M -1.0324835946669049 -2.5842428455864472 Q -1.0302324643701994 -2.5862258766974624 -1.0257124809749243 -2.584876895561034 Q -1.0211924975796496 -2.583527914424606 -1.0221216071356785 -2.5800441297824537 Q -1.026750184499871 -2.5293235592850345 -1.041266957023388 -2.4958793771975554 Q -1.055783729546905 -2.4624351951100762 -1.0835476698729412 -2.437977811407556 Q -1.1158138707923886 -2.409554365483005 -1.1515006979685976 -2.405437283252178 Q -1.1871875251448065 -2.401320201021351 -1.218916022921049 -2.437338285768641 L -1.368304366617524 -2.606923434787132 Q -1.390117708838691 -2.631685868050894 -1.4052677789508827 -2.632999403583595 Q -1.4204178490630748 -2.634312939116296 -1.442929152030131 -2.614482628006144 Q -1.4436795287956996 -2.613821617635806 -1.4464576198698984 -2.61470604399422 Q -1.4492357109440972 -2.6155904703526334 -1.4512187420551124 -2.617841600649339 Q -1.4532017731661275 -2.6200927309460447 -1.4537287339436207 -2.6229601884154734 Q -1.4542556947211138 -2.6258276458849026 -1.4535053179555453 -2.626488656255241 Q -1.3856139434734556 -2.6916251381293232 -1.4185026996158663 -2.7652683979662225 Q -1.4196459875660827 -2.7695919257691735 -1.4147685385898872 -2.773888493176373 Q -1.4098910896136916 -2.7781850605835725 -1.407247048132338 -2.7751835535212983 L -1.3550272288756056 -2.7159037890413833 Q -1.3204205312642225 -2.747721653212856 -1.2618372227583732 -2.811321935952074 Q -1.260336469227236 -2.812643956692751 -1.2535029495357768 -2.808668656876833 Q -1.2466694298443175 -2.8046933570609145 -1.240720336511272 -2.797939966170798 Q -1.2347712431782265 -2.7911865752806806 -1.231448468524671 -2.7821196480943797 Q -1.2281256938711154 -2.7730527209080784 -1.231788211303728 -2.7711590561922934 Q -1.2824024449899656 -2.743897373405735 -1.3391629799874845 -2.697894746667738 L -1.179198470365595 -2.5163035694001508 Q -1.153419065922398 -2.4870388755429773 -1.1265580271425513 -2.486046607601558 Q -1.0996969883627046 -2.485054339660138 -1.0734338015678055 -2.5081897026219817 Q -1.0419179774139267 -2.535952138176194 -1.0333233378277036 -2.582170448080202 L -1.0324835946669049 -2.5842428455864472 M -0.5202635395833702 -3.1958638501667878 Q -0.5178149020302112 -3.190386243560499 -0.5196407708989741 -3.1895700310427793 Q -0.5452029350616554 -3.1781430557947035 -0.5562124330064694 -3.1513141356710173 Q -0.5672219309512834 -3.124485215547331 -0.5656980753803169 -3.076970187775069 L -0.5536557609580726 -2.765791810211081 Q -0.5529362703570146 -2.7617319662146955 -0.5611526802664479 -2.7580590098849567 Q -0.5711949590446441 -2.7535698410374985 -0.573740318514465 -2.7568134725161646 L -0.803620141227258 -2.9476098747609 L -0.7864540417253484 -2.6617247142018208 Q -0.7857345511242906 -2.657664870205435 -0.7948638954681053 -2.6535838076168368 Q -0.8039932398119201 -2.6495027450282382 -0.8065385992817409 -2.6527463765069044 L -1.0539457725332944 -2.8729501244851705 Q -1.0897530303518972 -2.9040441799863768 -1.1096170017088478 -2.91049961505539 Q -1.1294809730657986 -2.916955050124403 -1.149565530622191 -2.907976712429486 Q -1.1523043339253354 -2.9067523936529067 -1.1547529714784945 -2.9122300002591954 Q -1.1572016090316535 -2.9177076068654846 -1.1544628057285091 -2.918931925642064 Q -1.1380299859096425 -2.9262778383015413 -1.1275796008725865 -2.929854072714618 L -1.0742212974196013 -2.9526113012941075 L -1.012549862140521 -2.9812754613309584 Q -0.9992639518836586 -2.9883099896482377 -0.9755276565897403 -2.9989207523785937 Q -0.9727888532865958 -3.000145071155173 -0.9703402157334368 -2.9946674645488844 Q -0.9678915781802777 -2.9891898579425953 -0.9706303814834221 -2.987965539166016 Q -1.0190159065056403 -2.966335907446444 -1.0096294625518638 -2.9453384154556703 Q -1.0071808249987046 -2.939860808849381 -0.9985350902381989 -2.932771995799866 L -0.8172648260175621 -2.7772049963771717 L -0.8340228192606118 -3.0621772225018695 Q -0.8347423098616698 -3.066237066498255 -0.8265258999522365 -3.069910022827994 Q -0.8164836211740403 -3.074399191675452 -0.8139382617042195 -3.071155560196786 L -0.5797839325695044 -2.8756977638634815 L -0.5902505831919549 -3.068185293913476 Q -0.5912059548107618 -3.0874748575443616 -0.5977356549525192 -3.1020818084944652 Q -0.6071220989062958 -3.123079300485239 -0.6277433125265288 -3.1275531745143903 Q -0.6483645261467619 -3.132027048543541 -0.679404296915732 -3.1181514357423064 Q -0.6812301657844949 -3.1173352232245866 -0.683678803337654 -3.1228128298308757 Q -0.6861274408908131 -3.1282904364371644 -0.6843015720220501 -3.1291066489548838 Q -0.6596523422937504 -3.1401255179441 -0.6464631539535499 -3.144926071133756 L -0.5912789816318016 -3.1684995122309654 L -0.556082644949784 -3.185328590760881 Q -0.5464484724304476 -3.1907306940427205 -0.5245380460052922 -3.200525244255357 Q -0.5227121771365293 -3.2013414567730765 -0.5202635395833702 -3.1958638501667878 M 0.11136123829998085 -2.928650775997095 Q 0.1153506492818343 -2.9289416368192533 0.11817124957042102 -2.924635337478517 Q 0.12099184985900774 -2.920329038137781 0.11814522203369687 -2.9181161870302352 L -0.007926929673009564 -2.8457572721403532 Q -0.009848919958396707 -2.8446144889838108 -0.012840978194786856 -2.8443963433671917 Q -0.02181715290395725 -2.8437419065173355 -0.030751602605724793 -2.8631435973850556 Q -0.03968605230749239 -2.8825452882527762 -0.04400764437568683 -2.914315145696525 Q -0.07551803593863432 -2.8789301881078866 -0.10900743552182995 -2.8569367773774643 Q -0.1424968351050256 -2.834943366647042 -0.18438565041448735 -2.831889328014378 Q -0.22427976023302235 -2.828980719792794 -0.2596804152923392 -2.846954134086446 Q -0.29508107035165604 -2.8649275483800984 -0.3179003758797383 -2.902868677715109 Q -0.34071968140782055 -2.9408098070501203 -0.34471901771249935 -2.995664208050606 Q -0.3498817973058119 -3.0664762529785055 -0.32036074382915825 -3.1222705842463734 Q -0.2908396903525045 -3.178064915514241 -0.23955370182809296 -3.2103797322563166 Q -0.1882677133036814 -3.242694548998392 -0.13042125406680563 -3.2469120309196895 Q -0.07456950032085669 -3.250984082429908 -0.031714727207288684 -3.227036881729521 Q -0.011497471607953946 -3.2385374285004866 0.001302023539899444 -3.2555130853054552 Q 0.0022266610798232223 -3.256583153256458 0.0042213665707499515 -3.2567285836675377 Q 0.006216072061676681 -3.2568740140786168 0.008818526733644583 -3.2555597729742707 Q 0.01142098140561243 -3.2542455318699246 0.011566411816691657 -3.252250826378998 L 0.0322902453954817 -2.968005293921936 Q 0.03454441676720971 -2.9370873588125717 0.04247118365746838 -2.924630779560325 Q 0.050397950547726944 -2.9121742003080784 0.06635559447514094 -2.913337643596712 Q 0.08331059114801831 -2.9145738020908856 0.11036388555451743 -2.9285780607915552 L 0.11136123829998085 -2.928650775997095 M -0.04624115561532366 -2.9311974271638626 L -0.046532016437482115 -2.9351868381457162 L -0.06172949439526143 -3.1436335619475617 Q -0.06449267220576682 -3.18153296627517 -0.09124437098084154 -3.204648904773264 Q -0.11799606975591623 -3.2277648432713577 -0.1548981213380611 -3.225074380666392 Q -0.20676046410215662 -3.2212931899783324 -0.23446860010173262 -3.1681376709852023 Q -0.2621767361013086 -3.114982151992072 -0.2562868044525999 -3.0341965796095387 Q -0.2508331640371288 -2.9593951236997857 -0.22027920969868256 -2.9185086237972 Q -0.18972525536023635 -2.8776221238946142 -0.14185232357799435 -2.8811124537605157 Q -0.09796880277760583 -2.8843119228042586 -0.04624115561532366 -2.9311974271638626 M 0.5221046414227856 -3.1723339114592246 Q 0.5400481796727734 -3.1537858809688673 0.5362531843311796 -3.133131631760598 Q 0.5328196171173567 -3.114444453905498 0.519340388070013 -3.1047202375211693 Q 0.5058611590226693 -3.094996021136841 0.48619044549098445 -3.098610302414549 Q 0.4734044816953893 -3.100959585245059 0.466038355795793 -3.107905101009299 Q 0.4586722298961968 -3.114850616773538 0.45162754944579286 -3.126312400114349 Q 0.44440215493150337 -3.136790647778576 0.4383306184828981 -3.142481556770403 Q 0.43225908203429286 -3.1481724657622303 0.4224237252684504 -3.149979606401084 Q 0.4116048328260238 -3.151967461103824 0.3977745673256947 -3.1458663336514254 Q 0.38394430182536576 -3.1397652061990273 0.35349309450926925 -3.1179083085922734 L 0.3144588567100194 -2.9054646024500776 Q 0.30939886292122776 -2.877925603505719 0.31464679440756305 -2.8622186236841642 Q 0.31989472589389845 -2.8465116438626095 0.3374976193656865 -2.8371768625892813 Q 0.35510051283747457 -2.8278420813159526 0.3914913328710914 -2.821155660952192 Q 0.39542547557742835 -2.820432804696651 0.3943411911941159 -2.814531590637145 Q 0.3932569068108034 -2.8086303765776397 0.3893227641044664 -2.8093532328331814 Q 0.35686608677718656 -2.8153167969414 0.3373760873093872 -2.8199146138956928 L 0.25985748292311767 -2.835174560619225 L 0.20263169961734634 -2.8446724406479946 Q 0.1886814860812816 -2.8462189018658064 0.1640930941666756 -2.8507367534629418 Q 0.1611424871369229 -2.8512788956545982 0.1622267715202354 -2.8571801097141036 Q 0.16331105590354789 -2.863081323773609 0.1662616629333006 -2.8625391815819525 Q 0.19970187593716476 -2.8563949034098486 0.2130507652739872 -2.8681765481792882 Q 0.2263996546108097 -2.879958192948728 0.23380893123011173 -2.920283155688682 L 0.2683253174322262 -3.1081384699162715 Q 0.2741081674765595 -3.139611611566967 0.26944236086045903 -3.1557200021948715 Q 0.2647765542443584 -3.1718283928227757 0.24805644774242638 -3.1749005319088277 Q 0.2333034125936628 -3.177611242867109 0.1961689529549332 -3.169183199954335 L 0.19518541727834893 -3.1693639140182204 Q 0.19125127457201196 -3.170086770273762 0.1901877735382706 -3.175365876784454 Q 0.18912427250452918 -3.180644983295146 0.19225559359816732 -3.1810863767800743 L 0.3326644673193693 -3.220359117712476 Q 0.3389271095066456 -3.2212419046823317 0.3399106451832298 -3.2210611906184465 Q 0.34974600194907224 -3.2192540499795923 0.35569600634137816 -3.196300892294177 Q 0.3616460107336841 -3.1733477346087615 0.357288089850863 -3.1385625578005425 Q 0.40359740004860667 -3.1747902790787177 0.43224146672584896 -3.186811819919629 Q 0.46088553340309124 -3.19883336076054 0.4815397826113603 -3.1950383654189465 Q 0.5041611031727978 -3.190881941949582 0.5221046414227856 -3.1723339114592246 M 0.8546820543986818 -2.7003495540168125 Q 0.8565132974525608 -2.699545471385723 0.8571941860077299 -2.6948778819891026 Q 0.8578750745628989 -2.6902102925924827 0.8552397488779303 -2.6891831321696937 Q 0.8086079691795839 -2.672525487613368 0.7684983322918784 -2.6732088826209672 Q 0.7283886954041728 -2.6738922776285663 0.6881013482188367 -2.691582095512541 Q 0.6313328135485905 -2.7165086570763237 0.6012417504617242 -2.7586634660819667 Q 0.5711506873748579 -2.8008182750876096 0.567524420033528 -2.8510114039517203 Q 0.5638981526921981 -2.9012045328158305 0.5844022597849872 -2.9479012306897427 Q 0.6081226974021352 -3.001922900779171 0.6548335569085484 -3.03492813679063 Q 0.7015444164149617 -3.067933372802089 0.7601571025453728 -3.0733234585693023 Q 0.8187697886757839 -3.078713544336515 0.8755383233460301 -3.053786982772732 Q 0.9295599934354579 -3.0300665451555844 0.9482057874355811 -2.9929372525942526 Q 0.9668515814357043 -2.955807960032921 0.9483576809206397 -2.9136893697937056 Q 0.9375025654009278 -2.88896758856634 0.9274307286045937 -2.8933900430373343 L 0.8770715446229238 -2.9155023153923025 L 0.7041306149272164 -2.989254839660862 Q 0.6929408827199555 -2.971232911541768 0.6832918911468784 -2.949257994895221 Q 0.6483142966944735 -2.8695989220514884 0.6646918407849599 -2.806161740134539 Q 0.6810693848754463 -2.742724558217589 0.7469941348150871 -2.7137775834983575 Q 0.770800294515513 -2.70332450929419 0.7985373856094649 -2.6993365552265245 Q 0.8262744767034168 -2.6953486011588583 0.852448770029258 -2.700238015120963 L 0.8546820543986818 -2.7003495540168125 M 0.7726957034566859 -3.0508894779330706 Q 0.7410717952370618 -3.0385635528596007 0.7150298447147821 -3.0041278618835925 L 0.8590729268639719 -2.944156281239409 Q 0.8737253777474331 -2.9825008464750167 0.8683223835739342 -3.009992802643342 Q 0.8629193894004352 -3.037484758811668 0.8345351220653121 -3.049948039593559 Q 0.80431961167631 -3.06321540300654 0.7726957034566859 -3.0508894779330706 M 1.5348862848587763 -1.942040271525407 Q 1.5301674524521929 -1.938334516444647 1.528314574911813 -1.9406939326479389 Q 1.50731529612084 -1.9674339829519116 1.4951316254059441 -1.984567522221747 L 1.4508314106577955 -2.042597609015305 L 1.397546741612599 -2.108830108928444 Q 1.3856430043025554 -2.1223689803014008 1.3671142288987557 -2.1459631423343177 Q 1.3652613513583756 -2.1483225585376093 1.3699801837649592 -2.152028313618369 Q 1.3746990161715424 -2.1557340686991293 1.3765518937119225 -2.1533746524958377 Q 1.4000216758900688 -2.123488713920809 1.4144536756243749 -2.1132068180027894 Q 1.4288856753586807 -2.1029249220847697 1.4436020393881352 -2.1068528515332927 Q 1.45831840341759 -2.1107807809818158 1.482699037518271 -2.129927182232409 L 1.6643740851717328 -2.2725987528416667 L 1.4525284197216228 -2.542358672084686 L 1.2708533720681612 -2.399687101475428 Q 1.247259210035244 -2.3811583260716285 1.2395611201334273 -2.3674839188865415 Q 1.2318630302316107 -2.353809511701455 1.2387391222116744 -2.33695812128162 Q 1.245615214191738 -2.3201067308617853 1.2690849963698843 -2.290220792286757 Q 1.270320248063471 -2.288647848151229 1.2656014156568876 -2.284942093070469 Q 1.2608825832503041 -2.281236337989709 1.2596473315567174 -2.282809282125237 Q 1.2386480527657444 -2.3095493324292096 1.2276996337444352 -2.325109927563517 L 1.1772231605283534 -2.3910047350347146 L 1.131350001644677 -2.4477995701346864 Q 1.1188286384878399 -2.462124913575407 1.097829359696867 -2.48886496387938 Q 1.0965941080032802 -2.4904379080149077 1.1013129404098636 -2.4941436630956675 Q 1.106031772816447 -2.4978494181764272 1.1072670245100336 -2.4962764740409 Q 1.1295015549945933 -2.467963479601399 1.1439335547288993 -2.4576815836833794 Q 1.1583655544632052 -2.4473996877653597 1.1734751545265418 -2.4516364301372793 Q 1.1885847545898784 -2.4558731725091993 1.2121789166227954 -2.474401947912999 L 1.5763154839974831 -2.7603627149783074 Q 1.5999096460304 -2.778891490382107 1.6072144998983349 -2.792257084643797 Q 1.6145193537662694 -2.805622678905487 1.6083453107434846 -2.8223896462148366 Q 1.6021712677206996 -2.839156613524186 1.5805543630829333 -2.866683135895923 Q 1.5793191113893466 -2.8682560800314505 1.5840379437959298 -2.8719618351122107 Q 1.5887567762025134 -2.8756675901929705 1.5899920278961002 -2.8740946460574426 L 1.6219397257083823 -2.8317940006191624 Q 1.6487775705253473 -2.7943810338084365 1.6648358425419736 -2.773932760046575 Q 1.68645274717974 -2.7464062376748384 1.7176717319613473 -2.7098908301157576 L 1.7511923739091573 -2.6688254363710637 Q 1.752427625602744 -2.6672524922355363 1.7477087931961606 -2.663546737154776 Q 1.7429899607895771 -2.6598409820740163 1.7417547090959906 -2.661413926209544 Q 1.7189025527646375 -2.6905133927168086 1.703375268039171 -2.700570898821917 Q 1.6878479833137043 -2.710628404927025 1.6724295703269711 -2.7067848985889875 Q 1.657011157340238 -2.7029413922509495 1.6334169953073208 -2.68441261684715 L 1.4729766934834845 -2.558416944101312 L 1.6848223589335944 -2.288657024858293 L 1.8452626607574307 -2.414652697604131 Q 1.868856822790348 -2.4331814730079304 1.8765549126921646 -2.4468558801930174 Q 1.8842530025939812 -2.460530287378104 1.8781633826816813 -2.477999303644732 Q 1.8720737627693818 -2.4954683199113603 1.8492216064380287 -2.5245677864186247 Q 1.8473687288976488 -2.5269272026219163 1.852087561304232 -2.5306329577026765 Q 1.8568063937108157 -2.5343387127834363 1.8586592712511956 -2.5319792965801446 L 1.8875188398295113 -2.493611011480684 Q 1.9155919363400629 -2.4546251005344297 1.938444092671416 -2.4255256340271654 Q 1.9551199905348355 -2.40429088819754 1.9851037236228561 -2.369348424773987 L 2.019859617264253 -2.326710086893766 Q 2.0217124948046328 -2.3243506706904737 2.0169936623980496 -2.320644915609714 Q 2.012274829991466 -2.316939160528954 2.010421952451086 -2.319298576732246 Q 1.9881874219665265 -2.3476115711717465 1.9736709991217352 -2.3571914181324876 Q 1.9591545762769438 -2.3667712650932287 1.9444382122474893 -2.3628433356447056 Q 1.9297218482180347 -2.3589154061961826 1.9061276861851175 -2.340386630792383 L 1.54199111881043 -2.054425863727074 Q 1.5183969567775129 -2.0358970883232743 1.5106988668756962 -2.022222681138188 Q 1.5030007769738796 -2.0085482739531013 1.5092592431071499 -1.9924833556010302 Q 1.5155177092404202 -1.976418437248959 1.5377522397249799 -1.9481054428094586 Q 1.5396051172653598 -1.9457460266061668 1.5348862848587763 -1.942040271525407 M 1.990252592219849 -1.6999593046984436 Q 1.9827724560194429 -1.6752601637736386 1.9628797172041772 -1.6685312008202837 Q 1.9448815249427462 -1.662443091481534 1.9298293373357573 -1.669491612478453 Q 1.9147771497287682 -1.6765401334753718 1.908368613582716 -1.69548559901372 Q 1.904203065087782 -1.7078001516136463 1.9066894402487555 -1.7176143219076088 Q 1.909175815409729 -1.727428492201571 1.9157647069131796 -1.739158219766854 Q 1.9214063251397129 -1.750567520524834 1.9234260672347228 -1.758640354096118 Q 1.9254458093297329 -1.7667131876674016 1.9222415412567067 -1.7761859204365757 Q 1.918716846376378 -1.7866059264826673 1.9066596884312972 -1.7957232145820625 Q 1.8946025304862166 -1.804840502681458 1.8606950550195784 -1.8208180840841401 L 1.6560840272054174 -1.7516058937067753 Q 1.6295603754517298 -1.7426339431023021 1.6183883273948483 -1.730409568181075 Q 1.6072162793379667 -1.7181851932598478 1.607620749015212 -1.6982644401546012 Q 1.608025218692457 -1.6783436870493547 1.6198810105626538 -1.6432945758034103 Q 1.6211627177918644 -1.6395054826957407 1.6154790781303598 -1.637582921851925 Q 1.6097954384688553 -1.6356603610081093 1.608513731239645 -1.639449454115779 Q 1.5979396465986586 -1.6707094722540536 1.5924783837295238 -1.6899753645997044 L 1.5681119392295346 -1.7651303802834826 L 1.5485799111290655 -1.81975180353739 Q 1.5431466625499115 -1.8326932026069311 1.5351359923673462 -1.8563750345298664 Q 1.5341747119454383 -1.8592168543606187 1.5398583516069428 -1.8611394152044345 Q 1.5455419912684472 -1.86306197604825 1.546503271690355 -1.8602201562174978 Q 1.557397783138644 -1.8280128648023057 1.5741843038958165 -1.8220788340584508 Q 1.590970824652989 -1.816144803314596 1.629809029006603 -1.8292823024140032 L 1.8107382248978288 -1.8904838226088025 Q 1.841050969759186 -1.9007374804424864 1.8528568678581776 -1.9126484321289061 Q 1.864662765957169 -1.9245593838153259 1.8592155102330246 -1.940663029522922 Q 1.8544091081234855 -1.954872128676683 1.8289850707141326 -1.9832202912592534 L 1.8286646439068301 -1.9841675645361707 Q 1.8273829366776195 -1.9879566576438403 1.8314784494476015 -1.9914533382341884 Q 1.8355739622175833 -1.9949500188245362 1.8374825159164085 -1.9924286258010866 L 1.9400839173957656 -1.888843142192273 Q 1.943901024793416 -1.8838003561453736 1.9442214516007188 -1.8828530828684562 Q 1.9474257196737448 -1.873380350099282 1.9302636122930465 -1.8570184409731019 Q 1.9131015049123483 -1.8406565318469215 1.880587793834844 -1.827547047037495 Q 1.9347644635040122 -1.804702168759031 1.9591992062014763 -1.7855203192833229 Q 1.9836339488989403 -1.7663384698076146 1.9903629118522952 -1.746445730992349 Q 1.9977327284202553 -1.7246584456232483 1.990252592219849 -1.6999593046984436 M 2.031916245229241 -1.3107907336005793 Q 2.0392592112361134 -1.3074619424954004 2.0384187045188655 -1.316422609237237 Q 2.0297334684406363 -1.4090161655695512 2.001526605732699 -1.4580964354972479 Q 1.973319743024761 -1.5071767054249445 1.917874729139244 -1.5200549986051302 Q 1.9168790995012621 -1.5199616089698804 1.9165055409602632 -1.523944127521808 Q 1.9157584238782648 -1.5319091646256628 1.919834332065442 -1.5312870935286802 L 2.0709231038967504 -1.5052835740263724 Q 2.071918733534732 -1.505376963661622 2.072292292075731 -1.5013944451096946 Q 2.0730394091577296 -1.4934294080058397 2.0689635009705523 -1.4940514791028223 Q 2.0608116845961977 -1.4952956212967878 2.057824795682252 -1.4950154523910386 Q 2.0448816103884875 -1.4938013871327915 2.041521952640567 -1.481433578118385 Q 2.0381622948926457 -1.4690657691039786 2.04068381504439 -1.442183768878468 L 2.0616030933403398 -1.2191627299705288 Q 2.0619766518813387 -1.2151802114186012 2.058274302235161 -1.2118197639636565 Q 2.0545719525889825 -1.2084593165087116 2.0504026547665553 -1.2100770172436763 L 1.6803592757302017 -1.4073810912800666 Q 1.6731096993585792 -1.409714252747264 1.6738568164405774 -1.4017492156434088 Q 1.6808610390843108 -1.3270769927947685 1.6949731742327445 -1.2837053702570729 Q 1.7090853093811784 -1.2403337477193774 1.734723957119747 -1.2186332928361823 Q 1.7603626048583156 -1.196932837952987 1.803206335641302 -1.1899032766156772 Q 1.8062866141904972 -1.1891878158834446 1.806800257184371 -1.1837118528745443 Q 1.8073139001782448 -1.178235889865644 1.804327011264299 -1.1779557209598948 L 1.6896428236258842 -1.169207172182134 Q 1.685660305073957 -1.168833613641135 1.681895432435271 -1.1714936388317063 Q 1.678130559796585 -1.1741536640222776 1.677757001255586 -1.1781361825742052 L 1.6477789283404074 -1.497733296366386 Q 1.6474053697994082 -1.5017158149183136 1.6511544142632113 -1.5045784475542674 Q 1.6549034587270144 -1.5074410801902212 1.6590727565494414 -1.5058233794552565 L 2.031916245229241 -1.3107907336005793" fill="#102036" fill-rule="nonzero"></path></g><g transform="matrix(1,0,0,1,0,0)"><g clip-path="url(#SvgjsClipPath23722)"><g clip-path="url(#SvgjsClipPath237200ce74e59-9dd3-4ff9-b023-9ee9a574976b)"><path d=" M 1.3373186162685942 -0.251821247725317 L 1.150862669921322 -0.706997073458353 C 1.1374153083201923 -0.7398662763375177 1.1054239883870247 -0.7613378082660727 1.0699103858560508 -0.7613296097722086 L -1.0699776499059594 -0.7613296097722086 C -1.1054973770446155 -0.7613446394841643 -1.1374970706640875 -0.7398719478778268 -1.15094674998371 -0.706997073458353 L -1.3373522482935503 -0.251821247725317 C -1.3432418257727743 -0.23743525691075362 -1.3415782763149786 -0.2210607160758309 -1.3329158432920494 -0.20815311720060503 C -1.3242534102691192 -0.1952455183253785 -1.309730442252078 -0.18750107616799427 -1.2941855442645593 -0.18750000000000044 L 1.2941350962271252 -0.18750000000000044 C 1.3096829718570113 -0.1874954712613388 1.3242111070372955 -0.1952376246430476 1.3328775263691237 -0.2081461347459499 C 1.341543945700956 -0.22105464484885218 1.3432093227609614 -0.23743250093719537 1.3373186162685942 -0.25182124772531655 Z M 0.21737218528661417 -0.2697807490509738 L -0.21740581731157094 -0.2697807490509738 C -0.2319206206151192 -0.2697807482952135 -0.2453328522880276 -0.27752430323856636 -0.25259025416173553 -0.2900944915022414 C -0.2598476560354417 -0.3026646797659165 -0.25984765604239857 -0.3181517905877731 -0.25259025417998027 -0.3307219788579667 C -0.2453328523175642 -0.34329216712816035 -0.23192062065161068 -0.3510357220835605 -0.2174058173480624 -0.35103572134083727 L 0.2173553692741388 -0.35103572134083727 C 0.23979330947695532 -0.35103572017253337 0.25798285331374626 -0.332846175380477 0.2579828533036683 -0.3104082351776596 C 0.2579828532935904 -0.28797029497484217 0.23979330944046184 -0.26978075019912384 0.2173553692376453 -0.2697807490509738 Z" fill="#005f9f" transform="matrix(1,0,0,1,0,0)" fill-rule="nonzero"></path></g><g clip-path="url(#SvgjsClipPath237200ce74e59-9dd3-4ff9-b023-9ee9a574976b)"><path d=" M 0.9554774209486578 -2.0809998209459746 C 1.0013150595982587 -2.0815513731399626 1.0389391978092242 -2.044875363211912 1.0395574833346917 -1.999038576132068 L 1.0395574833346917 -1.025088765477199 C 1.0389391978092242 -0.9792519783973548 1.0013150595982587 -0.9425759684693042 0.9554774209486578 -0.9431275206632923 L 0.373643389237299 -0.9431275206632923 L 0.11412186867656504 -1.2026154091990722 C 0.10101032783659591 -1.2158025386177522 0.09603994046974251 -1.2350410884258056 0.10112309103168338 -1.2529289185308752 C 0.11469361310079029 -1.3013085864277993 0.10964880935762578 -1.3500245745742676 0.08316358970602589 -1.3765097942258686 C 0.047110058954895395 -1.412563324977 -0.04897663633986382 -1.4548724123696526 -0.09599420722613572 -1.4497098965391504 L 0.00797919792043511 -1.34573649139258 L -0.0366336831815961 -1.2475814265631233 L -0.13478874801105234 -1.2029685454610934 L -0.23876215315762317 -1.3069419506076636 C -0.2439246689881256 -1.2598571156714842 -0.20161558159547277 -1.163837684426633 -0.16556205084434228 -1.1277841536755013 C -0.1390768311927406 -1.1012989340239006 -0.09036084304627234 -1.0962541302807383 -0.04198117514934796 -1.1098246523498443 C -0.02409334504427796 -1.1149078029117858 -0.004854795236225007 -1.1099374155449326 0.008332334182454382 -1.0968258747049635 L 0.25944584850458585 -0.8457123603828329 L 1.0178480112266164 -0.8457123603828329 C 1.0708622243828905 -0.8457216464598989 1.1138338112597972 -0.8887007616456497 1.1138338104465113 -0.941714975615207 L 1.1138338104465113 -2.0824123659940597 C 1.1138338104465113 -2.1354265814363806 1.0708622229102693 -2.1784056959629097 1.017848009753854 -2.178414981226692 L -0.16499030642011725 -2.178414981226692 L -0.0675751461396581 -2.0809998209459746 Z" fill="#35a6cc" transform="matrix(1,0,0,1,0,0)" fill-rule="nonzero"></path></g><g clip-path="url(#SvgjsClipPath237200ce74e59-9dd3-4ff9-b023-9ee9a574976b)"><path d=" M -1.0178480112266193 -0.8457123603828329 L 0.1649398583826831 -0.8457123603828329 L 0.06752469810222195 -0.9431275206632923 L -0.9554942369611354 -0.9431275206632923 C -1.0013318756107343 -0.9425759684693045 -1.0389560138217018 -0.9792519783973548 -1.03957429934717 -1.025088765477199 L -1.03957429934717 -1.999038576132068 C -1.0389560138217018 -2.044875363211912 -1.0013318756107343 -2.0815513731399626 -0.9554942369611354 -2.0809998209459746 L -0.3736602052497766 -2.0809998209459746 L -0.1141891327264748 -1.8215119324101947 C -0.10106796308953636 -1.8083302882271597 -0.09609612375392462 -1.7890861183796227 -0.10119035508159491 -1.7711984230783915 C -0.11476087715069982 -1.7228187551814673 -0.1097160734075373 -1.674102767034999 -0.08323085375593742 -1.647617547383398 C -0.04717732300480515 -1.6115640166322667 0.04890937228995429 -1.569254929239614 0.09592694317622419 -1.5744174450701163 L -0.008046461970344643 -1.6783908502166867 L 0.03656641913168457 -1.7765459150461433 L 0.1347214839611408 -1.8211587961481732 L 0.23869488910771164 -1.717185391001603 C 0.24385740493821406 -1.7642702259377825 0.20154831754556302 -1.8602896571826337 0.16549478679443075 -1.8963431879337653 C 0.13900956714282908 -1.922828407585366 0.0903103950088382 -1.9278732113285282 0.04191391109943643 -1.9143026892594224 C 0.024026080994368426 -1.909219538697481 0.004787531186313476 -1.9141899260643342 -0.008399598232365912 -1.9273014669043032 L -0.25944584850458785 -2.178414981226434 L -1.0178480112266193 -2.178414981226434 C -1.0708622243828936 -2.1784056951493684 -1.1138338112598019 -2.1354265799636174 -1.113833810446517 -2.0824123659940597 L -1.113833810446517 -0.9417486076401616 C -1.113842731625629 -0.916284217727432 -1.1037344462389813 -0.8918594845736949 -1.0857331335175102 -0.8738487107558486 C -1.0677318207960407 -0.8558379369380023 -1.0433124023116511 -0.8457168192144793 -1.0178480112265964 -0.8457123603828329 Z" fill="#005f9f" transform="matrix(1,0,0,1,0,0)" fill-rule="nonzero"></path></g></g></g></g><defs><clipPath id="SvgjsClipPath23722"><path d=" M -1.3408499788888082 -2.178414981226434 h 2.6816999577776164 v 1.990914981226434 h -2.6816999577776164 Z"></path></clipPath><clipPath id="SvgjsClipPath237200ce74e59-9dd3-4ff9-b023-9ee9a574976b"><path d=" M -1.3408499788888082 -2.178414981226434 L 1.3408499788888082 -2.178414981226434 L 1.3408499788888082 -0.1875 L -1.3408499788888082 -0.1875 Z"></path></clipPath></defs></svg>